<svg width="75" height="75" xmlns="http://www.w3.org/2000/svg">

 <g>
  <title>background</title>
  <rect fill="none" id="canvas_background" height="402" width="582" y="-1" x="-1"/>
 </g>
 <g>
  <title>Layer 1</title>
  <path id="svg_3" fill="#1BC1A9" d="m59.942,20.279c1.076,-1.467 0.963,-3.531 -0.363,-4.859c-1.326,-1.326 -3.391,-1.438 -4.857,-0.363c0.658,-1.695 0.016,-3.66 -1.609,-4.598s-3.647,-0.514 -4.787,0.904c0.197,-1.809 -0.932,-3.539 -2.743,-4.023c-1.812,-0.486 -3.657,0.449 -4.39,2.113c-0.277,-1.797 -1.816,-3.178 -3.692,-3.178s-3.415,1.379 -3.692,3.178c-0.732,-1.664 -2.578,-2.6 -4.389,-2.113c-1.812,0.484 -2.942,2.217 -2.744,4.025c-1.139,-1.418 -3.162,-1.846 -4.787,-0.906c-1.624,0.938 -2.268,2.902 -1.607,4.6c-1.467,-1.076 -3.533,-0.965 -4.859,0.361s-1.439,3.391 -0.363,4.859c-1.695,-0.66 -3.66,-0.016 -4.6,1.609c-0.937,1.623 -0.512,3.646 0.906,4.785c-1.809,-0.197 -3.538,0.934 -4.025,2.744c-0.484,1.811 0.449,3.656 2.113,4.389c-1.797,0.279 -3.178,1.818 -3.177,3.693c0,1.875 1.381,3.416 3.179,3.693c-1.665,0.73 -2.601,2.576 -2.115,4.389c0.486,1.811 2.218,2.941 4.026,2.744c-1.419,1.137 -1.845,3.162 -0.906,4.785c0.938,1.625 2.902,2.268 4.599,1.609c-1.076,1.467 -0.963,3.533 0.363,4.857c1.326,1.328 3.391,1.439 4.857,0.365c-0.658,1.695 -0.015,3.66 1.609,4.598c1.624,0.939 3.648,0.512 4.787,-0.906c-0.197,1.809 0.933,3.541 2.744,4.025c1.812,0.486 3.655,-0.449 4.389,-2.113c0.277,1.797 1.817,3.178 3.692,3.178c1.876,0 3.416,-1.381 3.692,-3.18c0.732,1.666 2.577,2.602 4.389,2.115c1.812,-0.484 2.942,-2.217 2.744,-4.025c1.139,1.418 3.163,1.844 4.787,0.906c1.625,-0.938 2.268,-2.902 1.609,-4.598c1.467,1.074 3.531,0.961 4.857,-0.365s1.439,-3.391 0.363,-4.857c1.696,0.658 3.662,0.016 4.6,-1.607c0.938,-1.625 0.512,-3.648 -0.906,-4.787c1.809,0.195 3.541,-0.934 4.025,-2.744c0.484,-1.812 -0.449,-3.656 -2.113,-4.391c1.797,-0.277 3.177,-1.816 3.177,-3.691s-1.38,-3.416 -3.177,-3.693c1.664,-0.732 2.599,-2.576 2.113,-4.389c-0.486,-1.812 -2.218,-2.941 -4.025,-2.744c1.418,-1.137 1.844,-3.162 0.906,-4.787c-0.938,-1.624 -2.904,-2.267 -4.6,-1.607z"/>
  <path id="svg_5" fill="#0CAFAF" d="m56.159,23.182c0.895,-1.219 0.801,-2.936 -0.303,-4.039c-1.103,-1.102 -2.819,-1.195 -4.039,-0.303c0.548,-1.408 0.014,-3.043 -1.338,-3.822c-1.351,-0.779 -3.032,-0.426 -3.979,0.752c0.164,-1.502 -0.775,-2.941 -2.281,-3.344c-1.508,-0.404 -3.041,0.373 -3.65,1.756c-0.229,-1.494 -1.51,-2.643 -3.069,-2.643s-2.839,1.148 -3.07,2.643c-0.608,-1.383 -2.143,-2.16 -3.648,-1.758c-1.507,0.404 -2.446,1.844 -2.281,3.348c-0.946,-1.18 -2.63,-1.533 -3.979,-0.754c-1.351,0.779 -1.886,2.414 -1.338,3.824c-1.219,-0.895 -2.937,-0.801 -4.039,0.301c-1.103,1.104 -1.196,2.82 -0.303,4.039c-1.409,-0.547 -3.043,-0.012 -3.822,1.338c-0.779,1.352 -0.428,3.033 0.752,3.98c-1.504,-0.164 -2.941,0.775 -3.346,2.281c-0.402,1.506 0.373,3.039 1.757,3.648c-1.495,0.23 -2.642,1.512 -2.642,3.07s1.148,2.84 2.643,3.07c-1.385,0.607 -2.162,2.143 -1.758,3.648c0.403,1.506 1.844,2.445 3.347,2.281c-1.179,0.945 -1.534,2.629 -0.753,3.98c0.779,1.35 2.412,1.885 3.822,1.336c-0.894,1.221 -0.801,2.938 0.303,4.039c1.103,1.104 2.819,1.197 4.039,0.303c-0.548,1.41 -0.013,3.045 1.338,3.824c1.35,0.779 3.033,0.426 3.979,-0.754c-0.165,1.504 0.775,2.943 2.282,3.348c1.506,0.402 3.038,-0.375 3.648,-1.758c0.23,1.494 1.51,2.643 3.069,2.641c1.56,0 2.841,-1.148 3.07,-2.643c0.608,1.385 2.142,2.162 3.648,1.758c1.507,-0.402 2.446,-1.842 2.282,-3.346c0.946,1.18 2.629,1.533 3.979,0.754c1.351,-0.781 1.885,-2.414 1.337,-3.824c1.22,0.895 2.937,0.801 4.039,-0.303c1.103,-1.102 1.196,-2.818 0.303,-4.039c1.41,0.549 3.044,0.014 3.822,-1.336c0.78,-1.35 0.428,-3.033 -0.752,-3.98c1.503,0.164 2.943,-0.775 3.346,-2.281c0.404,-1.506 -0.373,-3.039 -1.757,-3.648c1.494,-0.23 2.642,-1.512 2.642,-3.07s-1.147,-2.84 -2.642,-3.07c1.384,-0.609 2.161,-2.143 1.757,-3.648c-0.403,-1.508 -1.843,-2.445 -3.347,-2.281c1.179,-0.947 1.534,-2.629 0.753,-3.98c-0.778,-1.352 -2.413,-1.885 -3.821,-1.338z"/>
  <path id="svg_7" fill="#109BAD" d="m53.885,24.819496c0.785,-1.072 0.702,-2.578 -0.265,-3.547c-0.969,-0.969 -2.477,-1.051 -3.547,-0.266c0.48,-1.238 0.012,-2.672 -1.176,-3.357c-1.186,-0.686 -2.662,-0.373 -3.494,0.66c0.145,-1.318 -0.68,-2.584 -2.003,-2.938s-2.67,0.328 -3.205,1.543c-0.202,-1.312 -1.326,-2.32 -2.694,-2.318c-1.37,-0.002 -2.494,1.006 -2.697,2.318c-0.534,-1.215 -1.881,-1.896 -3.203,-1.543c-1.323,0.355 -2.148,1.619 -2.004,2.939c-0.831,-1.035 -2.309,-1.348 -3.494,-0.662s-1.656,2.119 -1.174,3.357c-1.072,-0.785 -2.58,-0.703 -3.549,0.266c-0.967,0.967 -1.05,2.475 -0.265,3.547c-1.237,-0.48 -2.673,-0.012 -3.357,1.174c-0.684,1.186 -0.374,2.664 0.661,3.494c-1.32,-0.143 -2.582,0.682 -2.938,2.004c-0.354,1.322 0.328,2.67 1.542,3.205c-1.312,0.203 -2.319,1.326 -2.319,2.695s1.008,2.494 2.32,2.695c-1.215,0.535 -1.898,1.883 -1.543,3.205c0.354,1.322 1.617,2.146 2.939,2.002c-1.037,0.832 -1.348,2.311 -0.662,3.496c0.684,1.186 2.119,1.654 3.356,1.174c-0.785,1.07 -0.702,2.58 0.267,3.547c0.967,0.969 2.475,1.051 3.545,0.266c-0.48,1.238 -0.011,2.672 1.176,3.357c1.186,0.686 2.663,0.373 3.494,-0.662c-0.145,1.32 0.682,2.586 2.004,2.939c1.322,0.355 2.668,-0.328 3.203,-1.543c0.203,1.312 1.328,2.32 2.697,2.32s2.492,-1.01 2.695,-2.322c0.534,1.217 1.881,1.898 3.203,1.545c1.324,-0.355 2.148,-1.619 2.004,-2.939c0.832,1.035 2.31,1.348 3.495,0.662s1.655,-2.119 1.175,-3.357c1.07,0.785 2.578,0.703 3.547,-0.266c0.967,-0.969 1.05,-2.475 0.265,-3.547c1.237,0.48 2.674,0.012 3.357,-1.174c0.685,-1.186 0.375,-2.662 -0.661,-3.494c1.32,0.143 2.584,-0.682 2.938,-2.004s-0.327,-2.67 -1.543,-3.205c1.312,-0.203 2.319,-1.326 2.319,-2.695s-1.008,-2.494 -2.319,-2.695c1.216,-0.535 1.897,-1.883 1.543,-3.205s-1.618,-2.148 -2.938,-2.002c1.035,-0.832 1.346,-2.311 0.661,-3.496s-2.119,-1.656 -3.356,-1.173z"/>
  <path id="svg_9" fill="#093260" d="m37.5,69.475c-1.672,0 -3.139,-0.903 -3.911,-2.287c-1.095,1.119 -2.789,1.621 -4.364,1.196c-1.614,-0.431 -2.797,-1.682 -3.186,-3.219c-1.336,0.794 -3.131,0.831 -4.527,0.025c-1.446,-0.835 -2.266,-2.35 -2.243,-3.935c-1.521,0.422 -3.239,-0.008 -4.378,-1.148c-1.184,-1.181 -1.583,-2.857 -1.148,-4.382c-0.016,0 -0.031,0 -0.046,0c-1.6,0 -3.089,-0.858 -3.887,-2.24c-0.837,-1.448 -0.789,-3.17 0.024,-4.53c-1.541,-0.397 -2.794,-1.595 -3.22,-3.18c-0.433,-1.615 0.059,-3.264 1.193,-4.367c-1.381,-0.772 -2.282,-2.238 -2.282,-3.908c-0.001,-1.669 0.9,-3.135 2.282,-3.909c-1.134,-1.104 -1.625,-2.753 -1.193,-4.367c0.427,-1.585 1.68,-2.783 3.22,-3.181c-0.812,-1.36 -0.861,-3.082 -0.025,-4.53c0.807,-1.396 2.324,-2.233 3.934,-2.24c-0.433,-1.525 -0.034,-3.202 1.148,-4.384c1.139,-1.138 2.862,-1.567 4.379,-1.145c-0.023,-1.584 0.796,-3.1 2.243,-3.935c1.394,-0.806 3.188,-0.768 4.526,0.024c0.388,-1.537 1.571,-2.787 3.187,-3.219c1.571,-0.422 3.269,0.079 4.363,1.197c0.772,-1.384 2.239,-2.287 3.911,-2.287s3.139,0.902 3.911,2.287c1.095,-1.118 2.789,-1.619 4.365,-1.197c1.613,0.432 2.796,1.682 3.185,3.218c1.337,-0.792 3.129,-0.83 4.526,-0.024c1.447,0.835 2.267,2.35 2.244,3.935c1.517,-0.421 3.239,0.006 4.378,1.146c1.182,1.184 1.581,2.859 1.148,4.383c1.641,0.004 3.128,0.844 3.934,2.239c0.836,1.449 0.788,3.171 -0.024,4.532c1.54,0.397 2.793,1.595 3.219,3.18c0.432,1.614 -0.059,3.263 -1.193,4.367c1.382,0.773 2.282,2.239 2.282,3.91c0,1.67 -0.901,3.136 -2.283,3.908c1.135,1.105 1.625,2.754 1.194,4.368c-0.424,1.585 -1.678,2.783 -3.221,3.18c0.813,1.361 0.862,3.083 0.026,4.532c-0.805,1.394 -2.278,2.288 -3.934,2.237c0.434,1.525 0.034,3.2 -1.148,4.383c-1.139,1.14 -2.861,1.57 -4.378,1.147c0.022,1.585 -0.797,3.1 -2.244,3.935c-1.396,0.804 -3.188,0.768 -4.526,-0.025c-0.388,1.537 -1.571,2.788 -3.187,3.219c-1.566,0.422 -3.268,-0.077 -4.363,-1.197c-0.772,1.385 -2.239,2.288 -3.911,2.288zm-3.692,-4.678c0.032,0 0.065,0.002 0.098,0.006c0.331,0.043 0.593,0.3 0.644,0.629c0.228,1.473 1.469,2.542 2.951,2.542c1.483,0 2.725,-1.07 2.951,-2.543c0.051,-0.33 0.312,-0.586 0.644,-0.63c0.328,-0.043 0.649,0.137 0.784,0.442c0.585,1.331 2.099,2.068 3.508,1.693c1.434,-0.383 2.355,-1.737 2.193,-3.22c-0.037,-0.331 0.15,-0.647 0.458,-0.774c0.308,-0.127 0.664,-0.036 0.872,0.223c0.899,1.12 2.575,1.449 3.827,0.727c1.284,-0.741 1.824,-2.287 1.285,-3.677c-0.12,-0.311 -0.021,-0.664 0.242,-0.867c0.264,-0.203 0.631,-0.208 0.9,-0.01c1.159,0.849 2.864,0.728 3.884,-0.291c1.049,-1.049 1.17,-2.682 0.289,-3.883c-0.197,-0.269 -0.193,-0.636 0.009,-0.9c0.203,-0.265 0.556,-0.364 0.867,-0.243c1.347,0.523 2.963,-0.043 3.679,-1.283c0.741,-1.285 0.436,-2.894 -0.727,-3.827c-0.26,-0.209 -0.351,-0.563 -0.224,-0.872c0.128,-0.308 0.446,-0.498 0.773,-0.459c1.479,0.155 2.846,-0.787 3.221,-2.192c0.383,-1.433 -0.328,-2.909 -1.691,-3.511c-0.305,-0.134 -0.484,-0.454 -0.44,-0.784c0.043,-0.33 0.3,-0.592 0.629,-0.643c1.473,-0.227 2.541,-1.468 2.541,-2.95c0,-1.483 -1.068,-2.725 -2.541,-2.952c-0.329,-0.051 -0.586,-0.313 -0.629,-0.644c-0.044,-0.331 0.136,-0.65 0.441,-0.784c1.363,-0.6 2.074,-2.076 1.69,-3.508c-0.376,-1.405 -1.732,-2.353 -3.22,-2.192c-0.335,0.039 -0.646,-0.151 -0.774,-0.459c-0.127,-0.308 -0.036,-0.663 0.225,-0.872c1.162,-0.932 1.467,-2.542 0.726,-3.827c-0.717,-1.242 -2.336,-1.806 -3.678,-1.284c-0.31,0.123 -0.664,0.023 -0.867,-0.242c-0.203,-0.265 -0.207,-0.631 -0.01,-0.9c0.881,-1.201 0.76,-2.835 -0.289,-3.886c-1.019,-1.018 -2.724,-1.138 -3.884,-0.288c-0.27,0.197 -0.637,0.192 -0.9,-0.01c-0.264,-0.203 -0.362,-0.556 -0.242,-0.867c0.539,-1.39 -0.001,-2.936 -1.285,-3.677c-1.252,-0.721 -2.927,-0.395 -3.827,0.725c-0.21,0.259 -0.566,0.35 -0.872,0.223c-0.308,-0.127 -0.494,-0.443 -0.458,-0.774c0.161,-1.481 -0.761,-2.834 -2.191,-3.217c-1.414,-0.38 -2.925,0.361 -3.51,1.691c-0.135,0.304 -0.448,0.485 -0.784,0.441c-0.331,-0.043 -0.593,-0.3 -0.644,-0.629c-0.228,-1.473 -1.469,-2.542 -2.951,-2.542s-2.724,1.069 -2.951,2.542c-0.051,0.33 -0.312,0.586 -0.644,0.629c-0.326,0.044 -0.649,-0.137 -0.784,-0.441c-0.584,-1.328 -2.094,-2.068 -3.508,-1.691c-1.434,0.383 -2.355,1.737 -2.193,3.22c0.037,0.331 -0.15,0.647 -0.458,0.774c-0.305,0.127 -0.663,0.037 -0.872,-0.223c-0.901,-1.121 -2.573,-1.452 -3.827,-0.727c-1.284,0.742 -1.824,2.289 -1.283,3.678c0.121,0.311 0.021,0.664 -0.243,0.867c-0.264,0.202 -0.632,0.207 -0.899,0.009c-1.16,-0.85 -2.867,-0.732 -3.886,0.287c-1.049,1.049 -1.17,2.683 -0.288,3.886c0.196,0.269 0.192,0.636 -0.011,0.9s-0.558,0.362 -0.867,0.242c-1.342,-0.522 -2.96,0.044 -3.678,1.286c-0.74,1.283 -0.436,2.892 0.727,3.825c0.26,0.209 0.351,0.564 0.224,0.872c-0.128,0.307 -0.438,0.492 -0.774,0.458c-1.476,-0.162 -2.842,0.787 -3.22,2.193c-0.384,1.432 0.328,2.907 1.69,3.507c0.306,0.134 0.485,0.454 0.441,0.784c-0.043,0.331 -0.299,0.593 -0.628,0.644c-1.474,0.229 -2.543,1.47 -2.542,2.952c0,1.484 1.069,2.725 2.543,2.953c0.33,0.051 0.586,0.313 0.629,0.644c0.044,0.331 -0.137,0.65 -0.441,0.784c-1.365,0.599 -2.076,2.074 -1.692,3.508c0.378,1.407 1.743,2.354 3.221,2.192c0.342,-0.033 0.646,0.152 0.774,0.459c0.127,0.308 0.036,0.664 -0.225,0.872c-1.163,0.932 -1.469,2.54 -0.726,3.824c0.716,1.242 2.33,1.807 3.678,1.286c0.312,-0.121 0.664,-0.021 0.867,0.243c0.202,0.264 0.206,0.631 0.009,0.9c-0.882,1.202 -0.761,2.835 0.289,3.883c1.019,1.021 2.724,1.142 3.884,0.291c0.268,-0.198 0.635,-0.193 0.9,0.01c0.264,0.203 0.362,0.556 0.242,0.867c-0.539,1.389 0.001,2.936 1.285,3.677c1.254,0.725 2.927,0.396 3.827,-0.727c0.208,-0.26 0.565,-0.352 0.872,-0.223c0.308,0.127 0.494,0.443 0.458,0.774c-0.161,1.482 0.761,2.836 2.192,3.219c1.413,0.38 2.923,-0.361 3.509,-1.691c0.12,-0.274 0.392,-0.447 0.686,-0.447z"/>
  <path id="svg_12" fill="#29537A" d="m42.558,22.102c-5.625,-1.844 -12.056,-0.545 -16.527,3.928c-4.473,4.473 -5.771,10.902 -3.93,16.527l20.457,-20.455z"/>
  <path id="svg_14" fill="#093260" d="m37.443,27.215c-2.813,-0.922 -6.028,-0.271 -8.265,1.965c-2.235,2.236 -2.885,5.451 -1.963,8.264l10.228,-10.229z"/>
  <path id="svg_16" fill="#29537A" d="m32.442,52.898c5.625,1.844 12.055,0.545 16.527,-3.928s5.771,-10.902 3.93,-16.529l-20.457,20.457z"/>
  <path id="svg_18" fill="#093260" d="m37.557,47.785c2.813,0.922 6.028,0.271 8.265,-1.965c2.235,-2.236 2.885,-5.451 1.963,-8.264l-10.228,10.229z"/>
  <path id="svg_21" fill="#093260" d="m22.101,43.307c-0.058,0 -0.116,-0.007 -0.174,-0.021c-0.254,-0.061 -0.458,-0.249 -0.539,-0.496c-2.005,-6.124 -0.43,-12.75 4.112,-17.291c3.196,-3.197 7.45,-4.958 11.977,-4.958c1.811,0 3.599,0.285 5.314,0.848c0.248,0.082 0.436,0.285 0.496,0.539c0.061,0.254 -0.015,0.521 -0.199,0.705l-20.457,20.454c-0.143,0.142 -0.334,0.22 -0.53,0.22zm15.376,-21.266c-4.126,0 -8.003,1.605 -10.916,4.519c-3.845,3.845 -5.357,9.33 -4.088,14.565l18.652,-18.651c-1.192,-0.288 -2.415,-0.433 -3.648,-0.433z"/>
  <path id="svg_23" fill="#093260" d="m19.979,45.428c-0.192,0 -0.384,-0.073 -0.53,-0.22c-0.293,-0.293 -0.293,-0.768 0,-1.061l20.457,-20.455c0.293,-0.293 0.768,-0.293 1.061,0s0.293,0.768 0,1.061l-20.457,20.455c-0.147,0.146 -0.338,0.22 -0.531,0.22z"/>
  <path id="svg_25" fill="#093260" d="m37.523,54.459l0,0c-1.811,0 -3.599,-0.285 -5.314,-0.848c-0.248,-0.082 -0.436,-0.285 -0.496,-0.539s0.015,-0.521 0.199,-0.705l20.457,-20.457c0.185,-0.185 0.451,-0.26 0.704,-0.199c0.254,0.061 0.458,0.249 0.539,0.496c2.005,6.125 0.429,12.751 -4.112,17.293c-3.197,3.198 -7.451,4.959 -11.977,4.959zm-3.648,-1.933c1.192,0.287 2.414,0.433 3.648,0.433c4.125,0 8.002,-1.604 10.916,-4.519c3.845,-3.845 5.356,-9.33 4.088,-14.566l-18.652,18.652z"/>
  <path id="svg_27" fill="#093260" d="m34.563,51.527c-0.192,0 -0.384,-0.073 -0.53,-0.22c-0.293,-0.293 -0.293,-0.768 0,-1.061l20.457,-20.456c0.293,-0.293 0.768,-0.293 1.061,0s0.293,0.768 0,1.061l-20.457,20.457c-0.147,0.146 -0.338,0.219 -0.531,0.219z"/>
  <text stroke="null" font-style="normal" font-weight="bold" transform="rotate(-45 37.46170425415038,37.30171966552734) matrix(0.26126268306637784,0,0,0.535681565089581,-7.815482213202001,18.427367165732164) " xml:space="preserve" text-anchor="start" font-family="Arvo, sans-serif" font-size="25" id="svg_54" y="44.213791" x="88.684515" stroke-opacity="null" stroke-width="0" fill="#09325e">Mais Vendas</text>
 </g>
</svg>