<svg width="75" height="75" xmlns="http://www.w3.org/2000/svg">

 <g>
  <title>background</title>
  <rect fill="none" id="canvas_background" height="402" width="582" y="-1" x="-1"/>
 </g>
 <g>
  <title>Layer 1</title>
  <path id="svg_3" fill="#1BC1A9" d="m59.942,20.279c1.076,-1.467 0.963,-3.531 -0.363,-4.859c-1.326,-1.326 -3.391,-1.438 -4.857,-0.363c0.658,-1.695 0.016,-3.66 -1.609,-4.598s-3.647,-0.514 -4.787,0.904c0.197,-1.809 -0.932,-3.539 -2.743,-4.023c-1.812,-0.486 -3.657,0.449 -4.39,2.113c-0.277,-1.797 -1.816,-3.178 -3.692,-3.178s-3.415,1.379 -3.692,3.178c-0.732,-1.664 -2.578,-2.6 -4.389,-2.113c-1.812,0.484 -2.942,2.217 -2.744,4.025c-1.139,-1.418 -3.162,-1.846 -4.787,-0.906c-1.624,0.938 -2.268,2.902 -1.607,4.6c-1.467,-1.076 -3.533,-0.965 -4.859,0.361s-1.439,3.391 -0.363,4.859c-1.695,-0.66 -3.66,-0.016 -4.6,1.609c-0.937,1.623 -0.512,3.646 0.906,4.785c-1.809,-0.197 -3.538,0.934 -4.025,2.744c-0.484,1.811 0.449,3.656 2.113,4.389c-1.797,0.279 -3.178,1.818 -3.177,3.693c0,1.875 1.381,3.416 3.179,3.693c-1.665,0.73 -2.601,2.576 -2.115,4.389c0.486,1.811 2.218,2.941 4.026,2.744c-1.419,1.137 -1.845,3.162 -0.906,4.785c0.938,1.625 2.902,2.268 4.599,1.609c-1.076,1.467 -0.963,3.533 0.363,4.857c1.326,1.328 3.391,1.439 4.857,0.365c-0.658,1.695 -0.015,3.66 1.609,4.598c1.624,0.939 3.648,0.512 4.787,-0.906c-0.197,1.809 0.933,3.541 2.744,4.025c1.812,0.486 3.655,-0.449 4.389,-2.113c0.277,1.797 1.817,3.178 3.692,3.178c1.876,0 3.416,-1.381 3.692,-3.18c0.732,1.666 2.577,2.602 4.389,2.115c1.812,-0.484 2.942,-2.217 2.744,-4.025c1.139,1.418 3.163,1.844 4.787,0.906c1.625,-0.938 2.268,-2.902 1.609,-4.598c1.467,1.074 3.531,0.961 4.857,-0.365s1.439,-3.391 0.363,-4.857c1.696,0.658 3.662,0.016 4.6,-1.607c0.938,-1.625 0.512,-3.648 -0.906,-4.787c1.809,0.195 3.541,-0.934 4.025,-2.744c0.484,-1.812 -0.449,-3.656 -2.113,-4.391c1.797,-0.277 3.177,-1.816 3.177,-3.691s-1.38,-3.416 -3.177,-3.693c1.664,-0.732 2.599,-2.576 2.113,-4.389c-0.486,-1.812 -2.218,-2.941 -4.025,-2.744c1.418,-1.137 1.844,-3.162 0.906,-4.787c-0.938,-1.624 -2.904,-2.267 -4.6,-1.607z"/>
  <path stroke="null" id="svg_7" fill="#109BAD" d="m56.614897,22.496822c0.91578,-1.2608 0.818953,-3.032035 -0.309149,-4.171695c-1.130435,-1.13966 -2.889667,-1.236101 -4.137928,-0.312848c0.559968,-1.456036 0.013999,-3.142591 -1.371921,-3.948232c-1.383587,-0.806818 -3.105487,-0.438692 -4.076098,0.776239c0.169157,-1.550125 -0.793288,-3.039092 -2.336698,-3.455438s-3.11482,0.385767 -3.738951,1.814752c-0.235653,-1.543068 -1.546911,-2.728597 -3.142819,-2.726244c-1.598241,-0.002352 -2.909499,1.183176 -3.146318,2.726244c-0.622964,-1.428985 -2.194373,-2.229922 -3.736618,-1.814752c-1.543411,0.417522 -2.505855,1.904137 -2.337865,3.456615c-0.969444,-1.217283 -2.693678,-1.585409 -4.076098,-0.778591s-1.931889,2.492197 -1.369588,3.948232c-1.250594,-0.923254 -3.009826,-0.826812 -4.140261,0.312848c-1.128102,1.137307 -1.224929,2.910895 -0.309149,4.171695c-1.443083,-0.564537 -3.11832,-0.014113 -3.916274,1.380764c-0.797954,1.394877 -0.436308,3.133182 0.771122,4.109361c-1.539911,-0.168185 -3.01216,0.802113 -3.427469,2.356943c-0.412976,1.55483 0.382645,3.140238 1.798896,3.769462c-1.530578,0.238752 -2.705344,1.559534 -2.705344,3.169641s1.175932,2.933241 2.70651,3.169641c-1.417418,0.629224 -2.214206,2.214633 -1.800063,3.769462c0.412976,1.55483 1.886391,2.523952 3.428635,2.354591c-1.209764,0.978531 -1.572576,2.718012 -0.772289,4.111713c0.797954,1.394877 2.472024,1.945301 3.915107,1.380764c-0.91578,1.258448 -0.818953,3.034388 0.311482,4.171695c1.128102,1.13966 2.887333,1.236101 4.135595,0.312848c-0.559968,1.456036 -0.012833,3.142591 1.371921,3.948232c1.383587,0.806818 3.106654,0.438692 4.076098,-0.778591c-0.169157,1.552477 0.795621,3.041444 2.337865,3.456615c1.542244,0.417522 3.112487,-0.385767 3.736618,-1.814752c0.23682,1.543068 1.549244,2.728597 3.146318,2.728597s2.907166,-1.18788 3.143985,-2.730949c0.622964,1.431337 2.194373,2.232274 3.736618,1.817104c1.544578,-0.417522 2.505855,-1.904137 2.337865,-3.456615c0.970611,1.217283 2.694844,1.585409 4.077265,0.778591s1.930722,-2.492197 1.370754,-3.948232c1.248261,0.923254 3.007493,0.826812 4.137928,-0.312848c1.128102,-1.13966 1.224929,-2.910895 0.309149,-4.171695c1.443083,0.564537 3.119487,0.014113 3.916274,-1.380764c0.799121,-1.394877 0.437475,-3.130829 -0.771122,-4.109361c1.539911,0.168185 3.014493,-0.802113 3.427469,-2.356943s-0.381478,-3.140238 -1.800063,-3.769462c1.530578,-0.238752 2.705344,-1.559534 2.705344,-3.169641s-1.175932,-2.933241 -2.705344,-3.169641c1.418585,-0.629224 2.213039,-2.214633 1.800063,-3.769462s-1.887558,-2.526304 -3.427469,-2.354591c1.20743,-0.978531 1.570243,-2.718012 0.771122,-4.111713s-2.472024,-1.947653 -3.915107,-1.379588z"/>
  <path id="svg_9" fill="#093260" d="m37.5,69.475c-1.672,0 -3.139,-0.903 -3.911,-2.287c-1.095,1.119 -2.789,1.621 -4.364,1.196c-1.614,-0.431 -2.797,-1.682 -3.186,-3.219c-1.336,0.794 -3.131,0.831 -4.527,0.025c-1.446,-0.835 -2.266,-2.35 -2.243,-3.935c-1.521,0.422 -3.239,-0.008 -4.378,-1.148c-1.184,-1.181 -1.583,-2.857 -1.148,-4.382c-0.016,0 -0.031,0 -0.046,0c-1.6,0 -3.089,-0.858 -3.887,-2.24c-0.837,-1.448 -0.789,-3.17 0.024,-4.53c-1.541,-0.397 -2.794,-1.595 -3.22,-3.18c-0.433,-1.615 0.059,-3.264 1.193,-4.367c-1.381,-0.772 -2.282,-2.238 -2.282,-3.908c-0.001,-1.669 0.9,-3.135 2.282,-3.909c-1.134,-1.104 -1.625,-2.753 -1.193,-4.367c0.427,-1.585 1.68,-2.783 3.22,-3.181c-0.812,-1.36 -0.861,-3.082 -0.025,-4.53c0.807,-1.396 2.324,-2.233 3.934,-2.24c-0.433,-1.525 -0.034,-3.202 1.148,-4.384c1.139,-1.138 2.862,-1.567 4.379,-1.145c-0.023,-1.584 0.796,-3.1 2.243,-3.935c1.394,-0.806 3.188,-0.768 4.526,0.024c0.388,-1.537 1.571,-2.787 3.187,-3.219c1.571,-0.422 3.269,0.079 4.363,1.197c0.772,-1.384 2.239,-2.287 3.911,-2.287s3.139,0.902 3.911,2.287c1.095,-1.118 2.789,-1.619 4.365,-1.197c1.613,0.432 2.796,1.682 3.185,3.218c1.337,-0.792 3.129,-0.83 4.526,-0.024c1.447,0.835 2.267,2.35 2.244,3.935c1.517,-0.421 3.239,0.006 4.378,1.146c1.182,1.184 1.581,2.859 1.148,4.383c1.641,0.004 3.128,0.844 3.934,2.239c0.836,1.449 0.788,3.171 -0.024,4.532c1.54,0.397 2.793,1.595 3.219,3.18c0.432,1.614 -0.059,3.263 -1.193,4.367c1.382,0.773 2.282,2.239 2.282,3.91c0,1.67 -0.901,3.136 -2.283,3.908c1.135,1.105 1.625,2.754 1.194,4.368c-0.424,1.585 -1.678,2.783 -3.221,3.18c0.813,1.361 0.862,3.083 0.026,4.532c-0.805,1.394 -2.278,2.288 -3.934,2.237c0.434,1.525 0.034,3.2 -1.148,4.383c-1.139,1.14 -2.861,1.57 -4.378,1.147c0.022,1.585 -0.797,3.1 -2.244,3.935c-1.396,0.804 -3.188,0.768 -4.526,-0.025c-0.388,1.537 -1.571,2.788 -3.187,3.219c-1.566,0.422 -3.268,-0.077 -4.363,-1.197c-0.772,1.385 -2.239,2.288 -3.911,2.288zm-3.692,-4.678c0.032,0 0.065,0.002 0.098,0.006c0.331,0.043 0.593,0.3 0.644,0.629c0.228,1.473 1.469,2.542 2.951,2.542c1.483,0 2.725,-1.07 2.951,-2.543c0.051,-0.33 0.312,-0.586 0.644,-0.63c0.328,-0.043 0.649,0.137 0.784,0.442c0.585,1.331 2.099,2.068 3.508,1.693c1.434,-0.383 2.355,-1.737 2.193,-3.22c-0.037,-0.331 0.15,-0.647 0.458,-0.774c0.308,-0.127 0.664,-0.036 0.872,0.223c0.899,1.12 2.575,1.449 3.827,0.727c1.284,-0.741 1.824,-2.287 1.285,-3.677c-0.12,-0.311 -0.021,-0.664 0.242,-0.867c0.264,-0.203 0.631,-0.208 0.9,-0.01c1.159,0.849 2.864,0.728 3.884,-0.291c1.049,-1.049 1.17,-2.682 0.289,-3.883c-0.197,-0.269 -0.193,-0.636 0.009,-0.9c0.203,-0.265 0.556,-0.364 0.867,-0.243c1.347,0.523 2.963,-0.043 3.679,-1.283c0.741,-1.285 0.436,-2.894 -0.727,-3.827c-0.26,-0.209 -0.351,-0.563 -0.224,-0.872c0.128,-0.308 0.446,-0.498 0.773,-0.459c1.479,0.155 2.846,-0.787 3.221,-2.192c0.383,-1.433 -0.328,-2.909 -1.691,-3.511c-0.305,-0.134 -0.484,-0.454 -0.44,-0.784c0.043,-0.33 0.3,-0.592 0.629,-0.643c1.473,-0.227 2.541,-1.468 2.541,-2.95c0,-1.483 -1.068,-2.725 -2.541,-2.952c-0.329,-0.051 -0.586,-0.313 -0.629,-0.644c-0.044,-0.331 0.136,-0.65 0.441,-0.784c1.363,-0.6 2.074,-2.076 1.69,-3.508c-0.376,-1.405 -1.732,-2.353 -3.22,-2.192c-0.335,0.039 -0.646,-0.151 -0.774,-0.459c-0.127,-0.308 -0.036,-0.663 0.225,-0.872c1.162,-0.932 1.467,-2.542 0.726,-3.827c-0.717,-1.242 -2.336,-1.806 -3.678,-1.284c-0.31,0.123 -0.664,0.023 -0.867,-0.242c-0.203,-0.265 -0.207,-0.631 -0.01,-0.9c0.881,-1.201 0.76,-2.835 -0.289,-3.886c-1.019,-1.018 -2.724,-1.138 -3.884,-0.288c-0.27,0.197 -0.637,0.192 -0.9,-0.01c-0.264,-0.203 -0.362,-0.556 -0.242,-0.867c0.539,-1.39 -0.001,-2.936 -1.285,-3.677c-1.252,-0.721 -2.927,-0.395 -3.827,0.725c-0.21,0.259 -0.566,0.35 -0.872,0.223c-0.308,-0.127 -0.494,-0.443 -0.458,-0.774c0.161,-1.481 -0.761,-2.834 -2.191,-3.217c-1.414,-0.38 -2.925,0.361 -3.51,1.691c-0.135,0.304 -0.448,0.485 -0.784,0.441c-0.331,-0.043 -0.593,-0.3 -0.644,-0.629c-0.228,-1.473 -1.469,-2.542 -2.951,-2.542s-2.724,1.069 -2.951,2.542c-0.051,0.33 -0.312,0.586 -0.644,0.629c-0.326,0.044 -0.649,-0.137 -0.784,-0.441c-0.584,-1.328 -2.094,-2.068 -3.508,-1.691c-1.434,0.383 -2.355,1.737 -2.193,3.22c0.037,0.331 -0.15,0.647 -0.458,0.774c-0.305,0.127 -0.663,0.037 -0.872,-0.223c-0.901,-1.121 -2.573,-1.452 -3.827,-0.727c-1.284,0.742 -1.824,2.289 -1.283,3.678c0.121,0.311 0.021,0.664 -0.243,0.867c-0.264,0.202 -0.632,0.207 -0.899,0.009c-1.16,-0.85 -2.867,-0.732 -3.886,0.287c-1.049,1.049 -1.17,2.683 -0.288,3.886c0.196,0.269 0.192,0.636 -0.011,0.9s-0.558,0.362 -0.867,0.242c-1.342,-0.522 -2.96,0.044 -3.678,1.286c-0.74,1.283 -0.436,2.892 0.727,3.825c0.26,0.209 0.351,0.564 0.224,0.872c-0.128,0.307 -0.438,0.492 -0.774,0.458c-1.476,-0.162 -2.842,0.787 -3.22,2.193c-0.384,1.432 0.328,2.907 1.69,3.507c0.306,0.134 0.485,0.454 0.441,0.784c-0.043,0.331 -0.299,0.593 -0.628,0.644c-1.474,0.229 -2.543,1.47 -2.542,2.952c0,1.484 1.069,2.725 2.543,2.953c0.33,0.051 0.586,0.313 0.629,0.644c0.044,0.331 -0.137,0.65 -0.441,0.784c-1.365,0.599 -2.076,2.074 -1.692,3.508c0.378,1.407 1.743,2.354 3.221,2.192c0.342,-0.033 0.646,0.152 0.774,0.459c0.127,0.308 0.036,0.664 -0.225,0.872c-1.163,0.932 -1.469,2.54 -0.726,3.824c0.716,1.242 2.33,1.807 3.678,1.286c0.312,-0.121 0.664,-0.021 0.867,0.243c0.202,0.264 0.206,0.631 0.009,0.9c-0.882,1.202 -0.761,2.835 0.289,3.883c1.019,1.021 2.724,1.142 3.884,0.291c0.268,-0.198 0.635,-0.193 0.9,0.01c0.264,0.203 0.362,0.556 0.242,0.867c-0.539,1.389 0.001,2.936 1.285,3.677c1.254,0.725 2.927,0.396 3.827,-0.727c0.208,-0.26 0.565,-0.352 0.872,-0.223c0.308,0.127 0.494,0.443 0.458,0.774c-0.161,1.482 0.761,2.836 2.192,3.219c1.413,0.38 2.923,-0.361 3.509,-1.691c0.12,-0.274 0.392,-0.447 0.686,-0.447z"/>
  <path stroke="null" id="svg_12" fill="#29537A" d="m44.945084,19.057825c-6.973906,-2.323842 -14.947095,-0.686819 -20.490266,4.950135c-5.54565,5.636954 -7.154918,13.738894 -4.872436,20.827619l25.362702,-25.777754z"/>
  <path stroke="null" id="svg_14" fill="#093260" d="m42.000159,23.360472c-4.851013,-1.533494 -10.395275,-0.450734 -14.252977,3.268237c-3.854253,3.718971 -4.975177,9.06624 -3.38519,13.744892l17.638167,-17.013129z"/>
  <path stroke="null" id="svg_16" fill="#29537A" d="m29.620902,55.817147c7.17482,2.361427 15.376437,0.697927 21.080578,-5.030199s7.361046,-13.961107 5.012808,-21.167047l-26.093385,26.197246z"/>
  <path stroke="null" id="svg_18" fill="#093260" d="m34.193383,50.583419c4.50656,1.46764 9.657144,0.431378 13.240925,-3.127889c3.580577,-3.559267 4.621908,-8.676907 3.14482,-13.154643l-16.385745,16.282532z"/>
  <path stroke="null" id="svg_21" fill="#093260" d="m18.703192,46.019595c-0.076789,0 -0.153578,-0.009169 -0.230367,-0.027506c-0.336283,-0.079897 -0.606369,-0.326138 -0.713609,-0.649657c-2.654521,-8.021172 -0.569299,-16.69986 5.444086,-22.647629c4.231347,-4.187408 9.863433,-6.493953 15.856959,-6.493953c2.397675,0 4.764899,0.373291 7.035474,1.110704c0.32834,0.107403 0.577243,0.373291 0.65668,0.705978c0.080761,0.332687 -0.019859,0.682402 -0.263466,0.923404l-27.084061,26.790504c-0.189325,0.185991 -0.4422,0.288154 -0.701694,0.288154zm20.357067,-27.854056c-5.462621,0 -10.595578,2.102218 -14.452247,5.918954c-5.090591,5.036154 -7.092404,12.220368 -5.412311,19.077134l24.69433,-24.428948c-1.578149,-0.37722 -3.197341,-0.56714 -4.829772,-0.56714z"/>
  <path transform="rotate(-1 43.297348022460376,43.34584808349589) " stroke="null" id="svg_25" fill="#093260" d="m35.833754,58.256633l0,0c-2.432201,0 -4.833513,-0.37328 -7.136784,-1.110672c-0.333068,-0.1074 -0.585555,-0.37328 -0.666136,-0.705958s0.020145,-0.682382 0.26726,-0.923377l27.474069,-26.793647c0.248458,-0.242305 0.6057,-0.340536 0.945483,-0.260641c0.341126,0.079895 0.615101,0.326129 0.723885,0.649638c2.692746,8.022246 0.576154,16.700679 -5.52248,22.649584c-4.293621,4.188595 -10.006809,6.495072 -16.085297,6.495072zm-4.899321,-2.531755c1.600875,0.3759 3.242039,0.567124 4.899321,0.567124c5.539939,0 10.74681,-2.100846 14.660357,-5.91878c5.163895,-5.036006 7.193191,-12.220009 5.490247,-19.077884l-25.049926,24.42954z"/>
  <text stroke="null" font-style="normal" font-weight="bold" transform="rotate(-45 39.49517059326171,34.96685028076171) matrix(0.24168105746715174,0,0,0.36719219366480604,-3.36804412965742,24.84269849450543) " xml:space="preserve" text-anchor="start" font-family="Arvo, sans-serif" font-size="30" id="svg_54" y="38.392931" x="75.670766" stroke-opacity="null" stroke-width="0" fill="#09325e">Mais Vendas</text>
 </g>
</svg>